<svg id="svg" version="1.1" xmlns="http://www.w3.org/2000/svg" xmlns:xlink="http://www.w3.org/1999/xlink" width="400" height="133.33333333333334" viewBox="0, 0, 400,133.33333333333334"><g id="svgg"><path id="path0" d="M271.667 57.133 C 271.667 71.066,271.767 74.341,272.266 76.750 C 274.383 86.967,281.816 92.357,293.226 91.950 C 303.594 91.580,309.912 86.451,312.046 76.673 C 312.381 75.137,312.395 74.546,312.454 59.125 L 312.516 43.167 309.258 43.167 L 306.000 43.167 305.997 57.458 C 305.994 75.057,305.925 75.867,304.136 79.485 C 301.955 83.897,298.176 85.904,292.083 85.884 C 284.551 85.860,280.530 82.627,278.874 75.263 C 278.644 74.242,278.600 72.002,278.547 58.625 L 278.485 43.167 275.076 43.167 L 271.667 43.167 271.667 57.133 M316.333 67.333 L 316.333 91.500 319.665 91.500 L 322.996 91.500 323.040 84.208 L 323.083 76.917 331.000 76.816 C 341.485 76.683,344.163 76.151,348.409 73.355 C 353.103 70.264,355.087 66.262,355.069 59.917 C 355.052 53.503,352.879 49.337,347.947 46.264 C 343.541 43.518,341.184 43.167,327.150 43.167 L 316.333 43.167 316.333 67.333 M339.333 49.410 C 344.534 50.601,347.513 53.380,348.277 57.752 C 349.436 64.393,345.912 69.284,339.009 70.615 C 337.164 70.971,323.359 71.142,323.150 70.812 C 322.985 70.551,322.943 49.675,323.107 49.248 C 323.267 48.832,337.423 48.973,339.333 49.410 " stroke="none" fill="#fbdb5b" fill-rule="evenodd"></path><path id="path1" d="M260.333 66.750 L 260.333 120.667 314.292 120.625 L 368.250 120.583 368.292 66.708 L 368.334 12.833 314.334 12.833 L 260.333 12.833 260.333 66.750 M278.714 58.375 C 278.794 76.465,278.763 76.122,280.632 79.708 C 285.192 88.457,300.811 87.772,304.379 78.667 C 304.798 77.598,304.984 76.980,305.364 75.392 C 305.499 74.824,305.586 69.894,305.654 58.833 L 305.750 43.083 309.292 43.038 L 312.833 42.993 312.832 56.872 C 312.831 64.505,312.757 71.773,312.666 73.023 C 311.769 85.468,304.666 92.071,292.167 92.080 C 279.860 92.089,273.105 86.082,271.745 73.918 C 271.491 71.642,271.368 43.354,271.611 43.111 C 271.672 43.050,273.280 43.000,275.184 43.000 L 278.646 43.000 278.714 58.375 M339.417 43.245 C 343.526 43.833,346.195 44.794,348.910 46.662 C 357.851 52.814,357.593 67.723,348.445 73.572 C 344.152 76.317,341.466 76.836,330.960 76.953 L 323.337 77.037 323.293 84.310 L 323.250 91.583 319.667 91.583 L 316.083 91.583 316.041 67.292 L 315.999 43.000 326.874 43.003 C 335.413 43.005,338.108 43.057,339.417 43.245 M116.000 46.612 C 113.078 46.903,111.127 47.303,109.833 47.875 C 107.460 48.925,105.337 50.061,104.782 50.577 C 104.434 50.901,104.090 51.167,104.019 51.167 C 103.947 51.167,103.445 51.627,102.903 52.189 C 102.360 52.751,101.726 53.407,101.493 53.647 C 100.556 54.612,99.308 56.644,98.309 58.833 C 96.481 62.837,96.559 71.025,98.461 74.801 C 100.167 78.187,100.495 78.662,102.504 80.646 C 105.114 83.226,105.594 83.542,109.833 85.471 C 113.468 87.125,123.516 87.095,126.250 85.422 C 126.433 85.310,127.033 85.051,127.583 84.848 C 128.984 84.329,131.111 83.125,132.000 82.349 L 132.750 81.694 132.799 74.305 C 132.860 65.036,133.262 66.149,129.871 66.204 L 127.083 66.250 127.040 72.629 L 126.996 79.007 126.456 79.327 C 126.160 79.503,125.823 79.729,125.708 79.830 C 125.594 79.931,125.500 79.971,125.500 79.919 C 125.500 79.868,125.331 79.933,125.125 80.064 C 123.532 81.078,118.608 81.753,115.807 81.341 C 114.443 81.141,111.331 80.250,111.167 80.013 C 111.121 79.947,110.489 79.561,109.763 79.155 C 107.866 78.094,105.783 75.975,104.834 74.141 C 104.438 73.376,104.062 72.712,103.999 72.667 C 103.837 72.548,103.224 70.434,103.012 69.261 C 102.533 66.608,103.138 61.660,104.083 60.500 C 104.195 60.362,104.577 59.688,104.931 59.000 C 105.808 57.300,107.940 55.170,109.764 54.173 C 110.489 53.776,111.121 53.402,111.167 53.341 C 112.088 52.122,119.234 51.543,122.583 52.418 C 124.396 52.891,128.790 55.380,129.062 56.087 C 129.114 56.223,129.267 56.333,129.403 56.333 C 129.755 56.333,133.000 53.092,133.000 52.740 C 133.000 52.133,130.124 49.811,128.333 48.972 C 127.737 48.693,126.782 48.242,126.210 47.970 C 124.150 46.988,119.041 46.308,116.000 46.612 M174.167 46.676 C 172.038 46.906,168.667 47.736,168.667 48.030 C 168.667 48.105,168.559 48.167,168.427 48.167 C 167.942 48.167,164.520 50.033,163.813 50.684 C 163.412 51.053,162.817 51.529,162.491 51.742 C 162.165 51.955,161.677 52.402,161.408 52.735 C 161.138 53.067,160.569 53.742,160.145 54.233 C 159.364 55.137,157.995 57.477,157.639 58.517 C 157.533 58.829,157.394 59.121,157.331 59.167 C 157.267 59.212,157.094 59.625,156.945 60.083 C 155.729 63.822,155.762 70.408,157.013 73.417 C 157.127 73.692,157.208 73.973,157.194 74.042 C 157.179 74.110,157.242 74.167,157.333 74.167 C 157.425 74.167,157.500 74.273,157.500 74.403 C 157.500 74.533,157.911 75.452,158.414 76.445 C 161.806 83.145,169.866 87.323,178.333 86.771 C 180.874 86.605,184.861 85.774,185.167 85.346 C 185.213 85.282,185.775 85.013,186.417 84.747 C 191.555 82.624,196.290 76.915,197.097 71.869 C 197.159 71.483,197.265 71.167,197.333 71.167 C 197.525 71.167,197.833 68.397,197.833 66.667 C 197.833 64.936,197.525 62.167,197.333 62.167 C 197.265 62.167,197.159 61.850,197.097 61.464 C 196.606 58.392,193.967 53.926,191.407 51.833 C 190.791 51.329,190.165 50.794,190.018 50.644 C 189.720 50.341,186.845 48.667,186.623 48.667 C 186.545 48.667,186.036 48.446,185.492 48.176 C 182.989 46.934,177.953 46.267,174.167 46.676 M36.000 66.667 L 36.000 86.333 39.000 86.333 L 42.000 86.333 42.000 80.417 L 42.000 74.500 47.208 74.499 C 53.155 74.499,55.582 74.325,57.833 73.738 C 59.248 73.369,61.768 72.336,61.996 72.031 C 62.044 71.967,62.670 71.478,63.388 70.944 C 65.546 69.337,67.208 66.500,67.670 63.635 C 68.110 60.897,67.583 55.825,66.755 54.833 C 66.641 54.696,66.308 54.133,66.017 53.583 C 65.028 51.717,62.593 49.633,60.333 48.719 C 58.680 48.050,58.432 47.951,58.333 47.917 C 58.288 47.901,58.025 47.796,57.750 47.682 C 56.451 47.144,53.851 47.007,44.875 47.003 L 36.000 47.000 36.000 66.667 M79.226 47.625 C 78.220 50.066,77.937 50.706,77.441 51.667 C 77.133 52.262,76.600 53.425,76.256 54.250 C 75.911 55.075,75.416 56.220,75.155 56.795 C 74.894 57.370,74.684 57.886,74.688 57.943 C 74.692 58.000,74.628 58.092,74.546 58.148 C 74.464 58.204,73.998 59.188,73.510 60.333 C 73.022 61.479,72.343 62.979,72.002 63.667 C 71.265 65.148,69.500 69.265,69.500 69.501 C 69.500 69.592,69.435 69.667,69.357 69.667 C 69.227 69.667,67.448 73.644,66.989 74.959 C 66.886 75.256,66.729 75.500,66.641 75.500 C 66.552 75.500,66.523 75.569,66.575 75.652 C 66.626 75.736,66.605 75.830,66.528 75.861 C 66.451 75.892,65.993 76.854,65.510 78.000 C 65.027 79.146,64.307 80.758,63.909 81.583 C 62.927 83.620,62.000 85.812,62.000 86.098 C 62.000 86.292,62.525 86.333,64.981 86.333 L 67.961 86.333 68.343 85.375 C 68.553 84.848,68.966 83.929,69.262 83.333 C 69.557 82.737,70.020 81.725,70.290 81.083 C 70.559 80.442,71.032 79.317,71.340 78.583 C 71.647 77.850,72.005 77.081,72.135 76.875 L 72.372 76.500 82.480 76.500 L 92.589 76.500 93.240 77.875 C 93.597 78.631,94.054 79.662,94.256 80.167 C 95.097 82.275,95.880 84.089,95.983 84.167 C 96.044 84.212,96.282 84.700,96.513 85.250 L 96.933 86.250 99.966 86.295 C 102.559 86.334,103.000 86.305,103.000 86.093 C 103.000 85.735,102.499 84.518,101.454 82.332 C 100.949 81.279,100.183 79.592,99.751 78.583 C 99.319 77.575,98.832 76.525,98.670 76.250 C 98.508 75.975,97.868 74.553,97.249 73.091 C 96.629 71.629,96.025 70.334,95.905 70.215 C 95.786 70.096,95.637 69.830,95.574 69.624 C 95.358 68.913,93.460 64.583,93.328 64.499 C 93.256 64.453,93.047 64.041,92.864 63.583 C 92.101 61.673,91.434 60.155,90.669 58.583 C 90.223 57.667,89.509 56.092,89.082 55.083 C 88.655 54.075,88.193 53.073,88.054 52.857 C 87.916 52.641,87.428 51.591,86.970 50.524 C 86.512 49.457,85.984 48.227,85.796 47.792 L 85.456 47.000 82.469 47.000 L 79.483 47.000 79.226 47.625 M134.500 66.667 L 134.500 86.333 148.083 86.333 L 161.667 86.333 161.667 83.750 L 161.667 81.167 151.083 81.167 L 140.500 81.167 140.500 64.083 L 140.500 47.000 137.500 47.000 L 134.500 47.000 134.500 66.667 M193.399 47.292 C 194.028 49.367,194.399 50.453,194.538 50.625 C 194.631 50.740,194.652 50.833,194.583 50.833 C 194.515 50.833,194.536 50.927,194.629 51.042 C 194.722 51.156,195.302 52.862,195.917 54.833 C 196.531 56.804,197.111 58.510,197.204 58.625 C 197.298 58.740,197.318 58.833,197.250 58.833 C 197.182 58.833,197.202 58.927,197.296 59.042 C 197.389 59.156,197.969 60.862,198.583 62.833 C 199.198 64.804,199.778 66.510,199.871 66.625 C 199.964 66.740,199.985 66.833,199.917 66.833 C 199.848 66.833,199.869 66.927,199.962 67.042 C 200.055 67.156,200.671 68.975,201.331 71.083 C 201.991 73.192,202.591 74.992,202.664 75.083 C 202.737 75.175,203.338 76.969,203.999 79.071 C 204.659 81.172,205.271 83.010,205.357 83.154 C 205.444 83.298,205.718 84.054,205.967 84.833 L 206.420 86.250 209.579 86.250 L 212.739 86.250 212.973 85.417 C 213.102 84.958,213.263 84.546,213.332 84.500 C 213.432 84.433,215.269 78.884,215.759 77.167 C 215.825 76.938,215.935 76.712,216.005 76.667 C 216.075 76.621,216.683 74.858,217.356 72.750 C 218.029 70.642,218.629 68.879,218.689 68.833 C 218.749 68.787,219.338 67.076,219.999 65.029 C 220.659 62.983,221.286 61.141,221.391 60.937 C 221.497 60.734,221.921 59.503,222.333 58.204 C 223.130 55.694,223.230 55.523,223.399 56.371 C 223.458 56.667,223.652 57.210,223.830 57.579 C 224.158 58.261,226.057 63.957,226.253 64.847 C 226.312 65.114,226.441 65.333,226.541 65.333 C 226.641 65.333,226.673 65.383,226.613 65.443 C 226.552 65.503,226.567 65.635,226.646 65.735 C 226.725 65.835,227.295 67.492,227.913 69.417 C 228.531 71.342,229.113 73.010,229.205 73.125 C 229.298 73.240,229.318 73.333,229.250 73.333 C 229.182 73.333,229.202 73.427,229.295 73.542 C 229.389 73.656,229.969 75.325,230.585 77.250 C 231.200 79.175,231.764 80.825,231.838 80.917 C 231.911 81.008,231.973 81.121,231.974 81.167 C 231.975 81.212,232.064 81.475,232.170 81.750 C 232.277 82.025,232.645 83.150,232.989 84.250 L 233.614 86.250 236.703 86.295 L 239.792 86.341 240.048 85.795 C 240.190 85.495,240.808 83.637,241.423 81.667 C 242.037 79.696,242.600 78.008,242.672 77.917 C 242.745 77.825,243.345 76.025,244.007 73.917 C 244.668 71.808,245.267 70.008,245.338 69.917 C 245.408 69.825,246.014 68.025,246.683 65.917 C 247.352 63.808,247.960 62.058,248.033 62.028 C 248.107 61.997,248.167 61.892,248.167 61.793 C 248.167 61.565,250.504 54.335,250.686 54.000 C 250.898 53.611,252.833 47.522,252.833 47.246 C 252.833 47.039,252.391 47.000,250.040 47.000 L 247.246 47.000 246.673 48.875 C 246.358 49.906,245.789 51.575,245.409 52.583 C 245.030 53.592,244.287 55.804,243.760 57.500 C 243.232 59.196,242.724 60.677,242.630 60.792 C 242.536 60.906,242.515 61.000,242.583 61.000 C 242.652 61.000,242.632 61.094,242.541 61.208 C 242.449 61.323,241.870 62.992,241.254 64.917 C 240.637 66.842,240.073 68.492,240.000 68.583 C 239.926 68.675,239.324 70.475,238.662 72.583 C 238.000 74.692,237.412 76.492,237.357 76.583 C 237.301 76.675,237.248 76.787,237.239 76.833 C 237.230 76.879,237.135 77.128,237.028 77.386 C 236.921 77.644,236.833 77.925,236.833 78.011 C 236.833 78.675,236.424 77.747,235.671 75.375 C 235.183 73.840,234.736 72.546,234.676 72.500 C 234.616 72.454,234.054 70.767,233.427 68.750 C 232.800 66.733,232.186 64.896,232.062 64.667 C 231.938 64.438,231.298 62.563,230.641 60.500 C 229.983 58.438,229.396 56.712,229.336 56.667 C 229.276 56.621,228.715 54.933,228.088 52.917 C 227.462 50.900,226.867 49.100,226.767 48.917 C 226.666 48.733,226.471 48.246,226.333 47.833 L 226.083 47.083 223.333 47.040 L 220.583 46.996 219.755 49.606 C 219.299 51.041,218.835 52.392,218.723 52.608 C 218.611 52.824,218.562 53.000,218.614 53.000 C 218.665 53.000,218.633 53.094,218.543 53.208 C 218.452 53.323,217.870 54.954,217.250 56.833 C 216.629 58.712,216.077 60.325,216.022 60.417 C 215.967 60.508,215.914 60.621,215.905 60.667 C 215.896 60.712,215.810 60.938,215.714 61.167 C 215.618 61.396,215.066 63.046,214.488 64.833 C 213.909 66.621,213.385 68.121,213.323 68.167 C 213.261 68.212,212.672 69.900,212.015 71.917 C 211.357 73.933,210.673 75.888,210.493 76.261 C 210.314 76.634,210.164 77.046,210.161 77.178 C 210.125 78.628,209.715 78.071,208.927 75.501 C 208.479 74.039,208.064 72.822,208.004 72.797 C 207.945 72.771,207.386 71.100,206.762 69.083 C 206.139 67.067,205.527 65.192,205.402 64.917 C 205.277 64.642,204.642 62.729,203.990 60.667 C 203.338 58.604,202.747 56.842,202.677 56.750 C 202.607 56.658,202.043 54.933,201.423 52.917 C 200.804 50.900,200.195 49.088,200.071 48.890 C 199.947 48.693,199.759 48.186,199.653 47.765 L 199.460 47.000 196.386 47.000 C 193.535 47.000,193.317 47.021,193.399 47.292 M323.333 60.000 L 323.333 70.667 330.104 70.667 C 340.393 70.667,342.673 70.148,345.665 67.128 C 349.144 63.616,349.103 56.261,345.584 52.750 C 342.631 49.804,340.538 49.333,330.387 49.333 L 323.333 49.333 323.333 60.000 M180.750 52.348 C 183.153 52.856,186.582 54.869,187.965 56.583 C 188.335 57.042,188.839 57.642,189.085 57.917 C 189.909 58.836,190.872 61.021,191.399 63.167 C 192.315 66.899,191.154 73.321,189.205 75.300 C 189.046 75.461,188.542 76.062,188.083 76.636 C 185.215 80.228,179.445 82.143,174.167 81.256 C 172.564 80.987,170.167 80.219,170.167 79.975 C 170.167 79.886,170.098 79.856,170.014 79.908 C 169.930 79.960,169.837 79.944,169.806 79.873 C 169.775 79.803,169.192 79.410,168.511 79.001 C 166.272 77.658,164.403 75.458,163.271 72.833 C 163.014 72.237,162.706 71.525,162.585 71.250 C 161.692 69.210,161.720 64.165,162.637 61.932 C 165.855 54.090,172.459 50.596,180.750 52.348 M55.519 52.613 C 56.217 52.794,57.174 53.181,57.646 53.472 C 58.119 53.762,58.567 54.000,58.643 54.000 C 59.419 54.000,61.525 57.157,61.822 58.766 C 62.164 60.614,61.812 64.333,61.296 64.333 C 61.214 64.333,61.193 64.408,61.250 64.500 C 61.307 64.592,61.286 64.667,61.203 64.667 C 61.121 64.667,60.976 64.835,60.882 65.042 C 59.401 68.283,56.177 69.283,46.708 69.434 L 42.000 69.510 42.000 60.824 L 42.000 52.138 48.125 52.210 C 53.548 52.274,54.395 52.320,55.519 52.613 M83.785 56.333 C 84.191 57.296,84.637 58.402,84.777 58.792 C 84.917 59.181,85.099 59.500,85.182 59.500 C 85.265 59.500,85.320 59.556,85.303 59.625 C 85.287 59.694,85.396 60.012,85.545 60.333 C 85.695 60.654,86.160 61.742,86.579 62.750 C 86.997 63.758,87.598 65.108,87.913 65.750 C 88.228 66.392,88.835 67.779,89.262 68.833 C 89.689 69.887,90.144 70.956,90.274 71.208 L 90.509 71.667 82.426 71.667 C 73.991 71.667,73.765 71.647,74.676 71.000 C 74.788 70.921,75.357 69.602,76.601 66.541 C 76.908 65.785,77.267 64.997,77.399 64.791 C 77.531 64.585,78.030 63.479,78.507 62.333 C 78.983 61.188,79.676 59.612,80.045 58.833 C 80.732 57.384,82.121 54.150,82.283 53.623 C 82.398 53.250,82.764 53.909,83.785 56.333 " stroke="none" fill="#2c2b24" fill-rule="evenodd"></path><path id="path2" d="M336.375 49.282 C 336.535 49.323,336.798 49.323,336.958 49.282 C 337.119 49.240,336.987 49.205,336.667 49.205 C 336.346 49.205,336.215 49.240,336.375 49.282 M345.583 52.667 C 345.941 53.033,346.272 53.333,346.318 53.333 C 346.363 53.333,346.108 53.033,345.750 52.667 C 345.392 52.300,345.062 52.000,345.016 52.000 C 344.970 52.000,345.225 52.300,345.583 52.667 M335.461 70.787 C 335.761 70.825,336.211 70.824,336.461 70.786 C 336.712 70.748,336.467 70.717,335.917 70.718 C 335.367 70.719,335.162 70.750,335.461 70.787 M312.548 72.583 C 312.549 73.042,312.581 73.209,312.620 72.956 C 312.658 72.703,312.657 72.328,312.617 72.123 C 312.578 71.918,312.546 72.125,312.548 72.583 M317.958 91.624 C 318.898 91.654,320.435 91.654,321.375 91.624 C 322.315 91.595,321.546 91.570,319.667 91.570 C 317.787 91.570,317.019 91.595,317.958 91.624 M289.625 92.118 C 289.831 92.157,290.169 92.157,290.375 92.118 C 290.581 92.078,290.412 92.045,290.000 92.045 C 289.587 92.045,289.419 92.078,289.625 92.118 M293.958 92.118 C 294.165 92.157,294.502 92.157,294.708 92.118 C 294.915 92.078,294.746 92.045,294.333 92.045 C 293.921 92.045,293.752 92.078,293.958 92.118 " stroke="none" fill="#6d5d34" fill-rule="evenodd"></path><path id="path3" d="M275.041 43.123 L 278.498 43.173 278.542 58.045 L 278.586 72.917 278.585 58.000 L 278.583 43.083 275.083 43.078 L 271.583 43.073 275.041 43.123 M305.911 43.205 C 305.867 43.321,305.850 49.942,305.875 57.917 L 305.919 72.417 305.959 57.792 L 306.000 43.167 309.249 43.167 L 312.498 43.167 312.542 57.500 L 312.586 71.833 312.585 57.458 L 312.583 43.083 309.288 43.038 C 306.742 43.003,305.974 43.041,305.911 43.205 M316.244 43.208 C 316.200 43.323,316.184 54.254,316.208 67.500 L 316.251 91.583 316.292 67.376 L 316.333 43.169 326.625 43.125 L 336.917 43.081 326.620 43.040 C 318.506 43.009,316.306 43.044,316.244 43.208 M350.750 48.500 C 351.201 48.958,351.608 49.333,351.654 49.333 C 351.700 49.333,351.368 48.958,350.917 48.500 C 350.465 48.042,350.058 47.667,350.013 47.667 C 349.967 47.667,350.299 48.042,350.750 48.500 M326.458 49.125 C 328.315 49.152,331.352 49.152,333.208 49.125 C 335.065 49.098,333.546 49.076,329.833 49.076 C 326.121 49.076,324.602 49.098,326.458 49.125 M337.460 49.285 C 337.668 49.324,337.968 49.323,338.127 49.281 C 338.286 49.239,338.117 49.207,337.750 49.209 C 337.383 49.211,337.253 49.245,337.460 49.285 M323.079 60.000 C 323.079 65.912,323.099 68.331,323.125 65.375 C 323.150 62.419,323.150 57.581,323.125 54.625 C 323.099 51.669,323.079 54.087,323.079 60.000 M355.229 59.917 C 355.229 60.925,355.257 61.316,355.290 60.786 C 355.323 60.255,355.323 59.430,355.289 58.952 C 355.256 58.474,355.229 58.908,355.229 59.917 M348.392 60.000 C 348.392 60.779,348.420 61.098,348.455 60.708 C 348.490 60.319,348.490 59.681,348.455 59.292 C 348.420 58.902,348.392 59.221,348.392 60.000 M337.127 70.785 C 337.334 70.824,337.634 70.823,337.794 70.781 C 337.953 70.739,337.783 70.707,337.417 70.709 C 337.050 70.711,336.920 70.745,337.127 70.785 M350.991 71.292 L 350.417 71.917 351.042 71.342 C 351.623 70.808,351.743 70.667,351.616 70.667 C 351.588 70.667,351.307 70.948,350.991 71.292 M326.208 70.958 C 327.927 70.985,330.740 70.985,332.458 70.958 C 334.177 70.931,332.771 70.909,329.333 70.909 C 325.896 70.909,324.490 70.931,326.208 70.958 M271.712 72.667 C 271.712 73.079,271.745 73.248,271.784 73.042 C 271.824 72.835,271.824 72.498,271.784 72.292 C 271.745 72.085,271.712 72.254,271.712 72.667 M278.709 73.750 C 278.711 74.117,278.745 74.247,278.785 74.040 C 278.824 73.832,278.823 73.532,278.781 73.373 C 278.739 73.214,278.707 73.383,278.709 73.750 M304.867 77.450 C 304.620 78.254,304.739 78.373,305.000 77.583 C 305.110 77.250,305.167 76.945,305.128 76.906 C 305.088 76.866,304.971 77.111,304.867 77.450 M323.077 84.250 C 323.077 88.283,323.098 89.909,323.125 87.864 C 323.151 85.818,323.151 82.518,323.125 80.530 C 323.098 78.543,323.077 80.217,323.077 84.250 M302.075 82.375 L 301.417 83.083 302.125 82.425 C 302.515 82.062,302.833 81.743,302.833 81.716 C 302.833 81.590,302.688 81.716,302.075 82.375 M275.637 84.958 C 275.817 85.210,276.137 85.567,276.347 85.750 C 276.558 85.933,276.438 85.727,276.080 85.292 C 275.364 84.420,275.126 84.241,275.637 84.958 M307.824 85.792 L 307.250 86.417 307.875 85.842 C 308.219 85.526,308.500 85.245,308.500 85.217 C 308.500 85.090,308.359 85.210,307.824 85.792 M291.458 85.955 C 291.848 85.990,292.485 85.990,292.875 85.955 C 293.265 85.920,292.946 85.892,292.167 85.892 C 291.387 85.892,291.069 85.920,291.458 85.955 M306.158 87.458 L 305.583 88.083 306.208 87.509 C 306.790 86.974,306.910 86.833,306.783 86.833 C 306.755 86.833,306.474 87.115,306.158 87.458 M288.708 91.948 C 288.869 91.990,289.131 91.990,289.292 91.948 C 289.452 91.906,289.321 91.872,289.000 91.872 C 288.679 91.872,288.548 91.906,288.708 91.948 M295.042 91.948 C 295.202 91.990,295.465 91.990,295.625 91.948 C 295.785 91.906,295.654 91.872,295.333 91.872 C 295.012 91.872,294.881 91.906,295.042 91.948 M291.375 92.123 C 291.810 92.157,292.523 92.157,292.958 92.123 C 293.394 92.088,293.037 92.060,292.167 92.060 C 291.296 92.060,290.940 92.088,291.375 92.123 " stroke="none" fill="#94843c" fill-rule="evenodd"></path><path id="path4" d="M312.746 57.333 C 312.746 65.263,312.767 68.506,312.792 64.542 C 312.817 60.577,312.817 54.090,312.792 50.125 C 312.767 46.160,312.746 49.404,312.746 57.333 M316.040 67.198 C 316.018 80.554,316.056 91.515,316.125 91.558 C 316.238 91.627,316.237 74.838,316.123 51.667 C 316.100 46.854,316.062 53.843,316.040 67.198 M271.580 57.750 C 271.580 65.817,271.600 69.141,271.625 65.138 C 271.650 61.134,271.650 54.534,271.625 50.471 C 271.600 46.408,271.580 49.683,271.580 57.750 M305.746 57.833 C 305.746 65.946,305.767 69.265,305.792 65.208 C 305.816 61.152,305.816 54.515,305.792 50.458 C 305.767 46.402,305.746 49.721,305.746 57.833 M351.000 48.583 C 351.311 48.904,351.603 49.167,351.649 49.167 C 351.695 49.167,351.478 48.904,351.167 48.583 C 350.856 48.262,350.564 48.000,350.518 48.000 C 350.472 48.000,350.689 48.262,351.000 48.583 M323.243 49.375 C 323.199 49.490,323.183 54.346,323.207 60.167 L 323.250 70.750 329.083 70.753 L 334.917 70.756 329.125 70.709 L 323.333 70.662 323.333 60.000 L 323.333 49.337 329.792 49.292 L 336.250 49.246 329.786 49.206 C 324.740 49.175,323.305 49.212,323.243 49.375 M355.394 59.917 C 355.395 60.833,355.423 61.187,355.456 60.703 C 355.490 60.218,355.490 59.468,355.456 59.036 C 355.421 58.604,355.394 59.000,355.394 59.917 M348.225 60.000 C 348.225 60.779,348.254 61.098,348.289 60.708 C 348.324 60.319,348.324 59.681,348.289 59.292 C 348.254 58.902,348.225 59.221,348.225 60.000 M312.539 73.833 C 312.539 74.154,312.573 74.285,312.615 74.125 C 312.657 73.965,312.657 73.702,312.615 73.542 C 312.573 73.381,312.539 73.512,312.539 73.833 M312.372 75.167 C 312.372 75.487,312.406 75.619,312.448 75.458 C 312.490 75.298,312.490 75.035,312.448 74.875 C 312.406 74.715,312.372 74.846,312.372 75.167 M323.246 77.042 C 323.113 77.400,323.077 91.639,323.208 91.558 C 323.277 91.515,323.333 88.223,323.333 84.242 L 323.333 77.004 329.958 76.958 L 336.583 76.913 329.953 76.873 C 324.772 76.842,323.306 76.879,323.246 77.042 M301.824 82.458 L 301.250 83.083 301.875 82.509 C 302.219 82.193,302.500 81.912,302.500 81.884 C 302.500 81.757,302.359 81.877,301.824 82.458 " stroke="none" fill="#4d442c" fill-rule="evenodd"></path></g></svg>